<svg width="103" height="101" xmlns="http://www.w3.org/2000/svg" xmlns:xlink="http://www.w3.org/1999/xlink" overflow="hidden"><defs><clipPath id="clip0"><path d="M172 152 275 152 275 253 172 253Z" fill-rule="evenodd" clip-rule="evenodd"/></clipPath></defs><g clip-path="url(#clip0)" transform="translate(-172 -152)"><path d="M176 202.5C176 177.371 197.266 157 223.5 157 249.734 157 271 177.371 271 202.5 271 227.629 249.734 248 223.5 248 197.266 248 176 227.629 176 202.5Z" stroke="#006666" stroke-width="8" stroke-miterlimit="8" fill="none" fill-rule="evenodd"/><path d="M198 185 209.2 209.8" stroke="#006666" stroke-width="8" stroke-miterlimit="8" fill="none" fill-rule="evenodd"/><path d="M202 194 246.8 194" stroke="#006666" stroke-width="8" stroke-miterlimit="8" fill="none" fill-rule="evenodd"/><path d="M0 0 8.05008 17.05" stroke="#006666" stroke-width="8" stroke-miterlimit="8" fill="none" fill-rule="evenodd" transform="matrix(-1 -8.74228e-08 -8.74228e-08 1 243.05 197)"/><path d="M206 212 239.46 212" stroke="#006666" stroke-width="8" stroke-miterlimit="8" fill="none" fill-rule="evenodd"/><path d="M204.5 220.5C204.5 217.739 206.515 215.5 209 215.5 211.485 215.5 213.5 217.739 213.5 220.5 213.5 223.261 211.485 225.5 209 225.5 206.515 225.5 204.5 223.261 204.5 220.5Z" stroke="#006666" stroke-width="1.33333" stroke-miterlimit="8" fill="#006666" fill-rule="evenodd"/><path d="M232.5 220.5C232.5 217.739 234.739 215.5 237.5 215.5 240.261 215.5 242.5 217.739 242.5 220.5 242.5 223.261 240.261 225.5 237.5 225.5 234.739 225.5 232.5 223.261 232.5 220.5Z" stroke="#006666" stroke-width="1.33333" stroke-miterlimit="8" fill="#006666" fill-rule="evenodd"/></g></svg>