<svg width="104" height="101" xmlns="http://www.w3.org/2000/svg" xmlns:xlink="http://www.w3.org/1999/xlink" overflow="hidden"><defs><clipPath id="clip0"><path d="M449 152 553 152 553 253 449 253Z" fill-rule="evenodd" clip-rule="evenodd"/></clipPath></defs><g clip-path="url(#clip0)" transform="translate(-449 -152)"><rect x="478.5" y="190.5" width="52" height="13" stroke="#DC143C" stroke-width="1.33333" stroke-miterlimit="8" fill="#FFFFFF"/><path d="M454 202.5C454 177.371 475.043 157 501 157 526.957 157 548 177.371 548 202.5 548 227.629 526.957 248 501 248 475.043 248 454 227.629 454 202.5Z" stroke="#FFFFFF" stroke-width="8" stroke-miterlimit="8" fill="none" fill-rule="evenodd"/><path d="M485.5 199.833C485.5 197.44 487.44 195.5 489.833 195.5L519.167 195.5C521.56 195.5 523.5 197.44 523.5 199.833L523.5 217.167C523.5 219.56 521.56 221.5 519.167 221.5L489.833 221.5C487.44 221.5 485.5 219.56 485.5 217.167Z" stroke="#DC143C" stroke-width="1.33333" stroke-miterlimit="8" fill="#FFFFFF" fill-rule="evenodd"/><path d="M495 202 514.922 202" stroke="#DC143C" stroke-width="2" stroke-miterlimit="8" fill="none" fill-rule="evenodd"/><rect x="478.5" y="211.5" width="52" height="12" stroke="#DC143C" stroke-width="1.33333" stroke-miterlimit="8" fill="#FFFFFF"/><path d="M480 223 470 220.5 470 214.5 480 212Z" fill="#FFFFFF" fill-rule="evenodd"/><path d="M479 202 469 199.5 469 193.5 479 191Z" fill="#FFFFFF" fill-rule="evenodd"/><path d="M494 176C494 170.477 498.701 166 504.5 166 510.299 166 515 170.477 515 176 515 181.523 510.299 186 504.5 186 498.701 186 494 181.523 494 176Z" fill="#FFFFFF" fill-rule="evenodd"/><text fill="#DC143C" font-family="Calibri,Calibri_MSFontService,sans-serif" font-weight="700" font-size="21" transform="translate(499.481 183)">$</text></g></svg>