<svg width="104" height="101" xmlns="http://www.w3.org/2000/svg" xmlns:xlink="http://www.w3.org/1999/xlink" overflow="hidden"><defs><clipPath id="clip0"><path d="M310 152 414 152 414 253 310 253Z" fill-rule="evenodd" clip-rule="evenodd"/></clipPath></defs><g clip-path="url(#clip0)" transform="translate(-310 -152)"><path d="M315 202.5C315 177.371 336.043 157 362 157 387.957 157 409 177.371 409 202.5 409 227.629 387.957 248 362 248 336.043 248 315 227.629 315 202.5Z" stroke="#006666" stroke-width="8" stroke-miterlimit="8" fill="none" fill-rule="evenodd"/><path d="M0 0 0.000104987 24" stroke="#006666" stroke-width="4" stroke-miterlimit="8" fill="none" fill-rule="evenodd" transform="matrix(1 0 0 -1 362 204)"/><path d="M383.75 223.1 362 202" stroke="#006666" stroke-width="4" stroke-miterlimit="8" fill="none" fill-rule="evenodd"/><path d="M357 180 362 169 367 180Z" fill="#006666" fill-rule="evenodd"/><path d="M386.481 219.751 389.875 231.016 379.04 226.43Z" fill="#006666" fill-rule="evenodd"/><path d="M355 202.5C355 198.91 357.91 196 361.5 196 365.09 196 368 198.91 368 202.5 368 206.09 365.09 209 361.5 209 357.91 209 355 206.09 355 202.5Z" fill="#006666" fill-rule="evenodd"/></g></svg>